<?xml version="1.0"?>
<svg xmlns="http://www.w3.org/2000/svg" xmlns:xlink="http://www.w3.org/1999/xlink" version="1.1" viewBox="0 0 192 192" width="90px" height="90px"><g fill="none" fill-rule="nonzero" stroke="none" stroke-width="1" stroke-linecap="butt" stroke-linejoin="miter" stroke-miterlimit="10" stroke-dasharray="" stroke-dashoffset="0" font-family="none" font-weight="none" font-size="none" text-anchor="none" style="mix-blend-mode: normal"><path d="M0,192v-192h192v192z" fill="none"/><g fill="#ffffff"><path d="M96,19.2c-42.4128,0 -76.8,34.3872 -76.8,76.8c0,42.4128 34.3872,76.8 76.8,76.8c42.4128,0 76.8,-34.3872 76.8,-76.8c0,-42.4128 -34.3872,-76.8 -76.8,-76.8zM138.9248,81.3248l-48.384,48.384c-1.2032,1.2032 -2.8288,1.8752 -4.5248,1.8752c-1.696,0 -3.328,-0.672 -4.5248,-1.8752l-22.0992,-22.0992c-2.5024,-2.5024 -2.5024,-6.5472 0,-9.0496c2.5024,-2.5024 6.5472,-2.5024 9.0496,0l17.5744,17.5744l43.8592,-43.8592c2.5024,-2.5024 6.5472,-2.5024 9.0496,0c2.5024,2.5024 2.5024,6.5472 0,9.0496z"/></g></g></svg>
