<?xml version="1.0"?>
<svg xmlns="http://www.w3.org/2000/svg" xmlns:xlink="http://www.w3.org/1999/xlink" version="1.1" viewBox="0 0 192 192" width="90px" height="90px"><g fill="none" fill-rule="nonzero" stroke="none" stroke-width="1" stroke-linecap="butt" stroke-linejoin="miter" stroke-miterlimit="10" stroke-dasharray="" stroke-dashoffset="0" font-family="none" font-weight="none" font-size="none" text-anchor="none" style="mix-blend-mode: normal"><path d="M0,192v-192h192v192z" fill="none"/><g fill="#ffffff"><path d="M96,19.2c-42.4128,0 -76.8,34.3872 -76.8,76.8c0,42.4128 34.3872,76.8 76.8,76.8c42.4128,0 76.8,-34.3872 76.8,-76.8c0,-42.4128 -34.3872,-76.8 -76.8,-76.8zM134.4,102.4h-32v32c0,3.5392 -2.8672,6.4 -6.4,6.4c-3.5328,0 -6.4,-2.8608 -6.4,-6.4v-32h-32c-3.5328,0 -6.4,-2.8608 -6.4,-6.4c0,-3.5392 2.8672,-6.4 6.4,-6.4h32v-32c0,-3.5392 2.8672,-6.4 6.4,-6.4c3.5328,0 6.4,2.8608 6.4,6.4v32h32c3.5328,0 6.4,2.8608 6.4,6.4c0,3.5392 -2.8672,6.4 -6.4,6.4z"/></g></g></svg>
