<?xml version="1.0"?>
<svg xmlns="http://www.w3.org/2000/svg" xmlns:xlink="http://www.w3.org/1999/xlink" version="1.1" viewBox="0 0 192 192" width="90px" height="90px"><g fill="none" fill-rule="nonzero" stroke="none" stroke-width="1" stroke-linecap="butt" stroke-linejoin="miter" stroke-miterlimit="10" stroke-dasharray="" stroke-dashoffset="0" font-family="none" font-weight="none" font-size="none" text-anchor="none" style="mix-blend-mode: normal"><path d="M0,192v-192h192v192z" fill="none"/><g fill="#ffffff"><path d="M25.6,32c-7.072,0 -12.8,5.728 -12.8,12.8v102.4c0,7.072 5.728,12.8 12.8,12.8h51.2c7.072,0 12.8,5.728 12.8,12.8v-128c0,-7.072 -5.728,-12.8 -12.8,-12.8zM115.2,32c-7.072,0 -12.8,5.728 -12.8,12.8v128c0,-7.072 5.728,-12.8 12.8,-12.8h51.2c7.072,0 12.8,-5.728 12.8,-12.8v-102.4c0,-7.072 -5.728,-12.8 -12.8,-12.8z"/></g></g></svg>
